<?xml version="1.0" standalone="no"?>
<!DOCTYPE svg PUBLIC "-//W3C//DTD SVG 20010904//EN"
 "http://www.w3.org/TR/2001/REC-SVG-20010904/DTD/svg10.dtd">
<svg version="1.0" xmlns="http://www.w3.org/2000/svg"
 width="981.000000pt" height="918.000000pt" viewBox="0 0 981.000000 918.000000"
 preserveAspectRatio="xMidYMid meet">

<g transform="translate(0.000000,918.000000) scale(0.100000,-0.100000)"
fill="#000000" stroke="none">
<path d="M4818 9160 c-55 -29 -386 -245 -827 -539 l-391 -261 -942 0 c-530 0
-979 -4 -1026 -10 -103 -12 -143 -30 -168 -78 -18 -35 -19 -70 -22 -734 l-3
-697 -82 -58 c-660 -463 -1298 -930 -1323 -969 -14 -21 -19 -69 -26 -277 -10
-275 -3 -5311 8 -5389 4 -32 16 -58 38 -84 31 -36 33 -37 136 -48 148 -15
9272 -15 9420 0 103 11 105 12 136 48 22 26 34 52 38 84 4 26 9 1177 12 2557
6 2579 1 3063 -29 3109 -22 33 -291 233 -887 659 l-515 369 -5 696 c-5 649 -6
700 -23 734 -24 47 -65 66 -169 78 -47 6 -497 10 -1030 10 l-948 0 -447 298
c-448 298 -701 460 -780 501 -53 26 -98 27 -145 1z m280 -558 c297 -193 332
-216 332 -224 0 -5 -238 -8 -530 -8 -291 0 -530 3 -529 8 0 6 517 350 527 352
2 0 92 -58 200 -128z m2862 -2389 l-1 -1748 -401 -370 c-533 -493 -812 -748
-874 -801 l-51 -44 -1741 0 -1741 0 -655 608 -655 607 -1 1748 0 1747 3060 0
3060 0 0 -1747z m-6530 -613 c0 -401 -3 -730 -6 -730 -16 0 -638 576 -799 740
l-80 81 30 25 c17 13 138 103 270 199 132 95 314 228 405 294 91 66 168 120
173 120 4 1 7 -327 7 -729z m7287 488 c373 -266 533 -386 533 -398 0 -16 -747
-725 -843 -800 -15 -12 -30 -20 -33 -18 -2 3 -7 332 -11 731 -5 544 -3 727 5
727 6 0 164 -109 349 -242z m-8042 -1099 c320 -294 996 -922 1484 -1379 256
-239 493 -461 528 -493 35 -32 63 -66 63 -74 0 -20 -2309 -2325 -2324 -2320
-19 6 -27 1071 -21 2802 3 886 8 1629 11 1653 l7 43 31 -29 c17 -15 117 -107
221 -203z m8718 -431 c8 -771 7 -2588 -2 -3322 -4 -363 -9 -510 -17 -513 -6
-2 -535 518 -1175 1156 l-1164 1159 65 67 c148 153 2264 2114 2281 2115 3 0 9
-298 12 -662z m-1513 -2933 l1225 -1225 -4205 0 -4205 0 1225 1225 1225 1225
1755 0 1755 0 1225 -1225z"/>
<path d="M3995 7125 c-128 -29 -228 -79 -347 -174 -135 -107 -228 -222 -306
-378 -61 -120 -76 -262 -52 -475 32 -274 286 -730 635 -1138 111 -130 545
-571 680 -692 251 -224 305 -234 490 -88 99 78 660 638 781 780 350 412 603
864 634 1138 12 108 12 237 0 321 -16 110 -107 278 -220 403 -114 127 -304
253 -445 294 -231 67 -500 -50 -817 -354 l-128 -124 -128 123 c-201 194 -391
317 -560 360 -87 22 -133 23 -217 4z m185 -415 c29 -11 79 -39 113 -62 73 -50
280 -249 407 -393 50 -56 102 -107 116 -114 32 -14 136 -14 168 0 14 7 66 58
117 116 134 151 335 342 415 395 95 62 152 82 211 74 155 -21 338 -193 379
-356 71 -278 -126 -684 -578 -1196 -117 -133 -573 -583 -611 -603 -26 -14 -28
-12 -143 95 -498 464 -823 857 -984 1189 -88 181 -105 245 -105 395 0 121 1
127 33 193 74 152 251 285 379 287 18 0 55 -9 83 -20z"/>
</g>
</svg>
