<?xml version="1.0" encoding="iso-8859-1"?>
<!DOCTYPE svg PUBLIC "-//W3C//DTD SVG 1.1//EN" "http://www.w3.org/Graphics/SVG/1.1/DTD/svg11.dtd">
<svg fill="#ffffff" height="800px" width="800px" version="1.1" id="Capa_1" xmlns="http://www.w3.org/2000/svg" xmlns:xlink="http://www.w3.org/1999/xlink" 
	 viewBox="0 0 400.707 400.707" xml:space="preserve">
<g>
	<g>
		<path d="M268.207,188.467c-2.829-18.539-16.275-33.295-33.462-36.718c-14.01-2.786-27.568,2.488-37.544,14.266
			c-9.976-11.776-23.53-17.052-37.544-14.266c-17.187,3.423-30.633,18.179-33.462,36.718c-2.288,14.999-0.231,53.912,68.129,91.202
			c0.912,0.497,1.896,0.733,2.868,0.733l0.009-0.034l0.009,0.034c0.972,0,1.956-0.236,2.868-0.733
			C268.439,242.379,270.495,203.466,268.207,188.467z M197.201,267.545c-58.894-33.089-61.02-64.967-59.144-77.269
			c2.07-13.566,11.692-24.318,23.943-26.758c11.596-2.307,22.557,3.474,30.064,15.871c1.717,2.834,5.406,3.742,8.24,2.023
			c0.859-0.521,1.538-1.224,2.023-2.028l0.008,0.005c7.507-12.396,18.468-18.184,30.064-15.871
			c12.251,2.439,21.873,13.192,23.943,26.758C258.221,202.579,256.095,234.456,197.201,267.545z"/>
		<path d="M128.824,45.873c-5.555-7.735-15.102-11.294-23.758-8.851c-6.04,1.703-10.553,5.936-12.913,11.812
			c-6.143-1.541-12.217-0.375-17.145,3.512c-7.06,5.569-9.79,15.385-6.795,24.425c2.286,6.898,11.462,23.05,47.21,24.05
			c0.058,0.001,0.114,0.002,0.171,0.002v-0.005c1.914-0.002,3.795-0.915,4.956-2.613C140.742,68.69,133.064,51.776,128.824,45.873z
			 M112.458,88.676c-17.749-1.09-29.928-6.852-32.853-15.68c-1.632-4.924,0.248-9.189,2.836-11.23
			c2.854-2.252,6.674-2.1,10.758,0.432l0.005-0.008c0.799,0.497,1.724,0.815,2.727,0.889c3.31,0.249,6.18-2.241,6.422-5.547
			c0.351-4.791,2.472-7.974,5.972-8.961c3.172-0.894,7.728,0.088,10.753,4.302C124.503,60.428,122.006,73.67,112.458,88.676z"/>
		<path d="M276.857,5.82c-5.85-2.269-12-1.598-17.419,1.681c-3.986-4.932-9.548-7.66-15.816-7.493
			c-8.99,0.211-17.07,6.417-20.106,15.443c-2.317,6.888-4.687,25.312,23.289,47.588c1.105,0.88,2.423,1.307,3.733,1.307l0.008-0.022
			l0.004,0.024c0.638,0,1.287-0.103,1.924-0.318c33.875-11.463,37.898-29.597,38.057-36.861
			C290.735,17.647,285.241,9.068,276.857,5.82z M251.732,51.551c-13.534-11.535-19.809-23.459-16.844-32.274
			c1.654-4.917,5.72-7.195,9.015-7.273c3.659-0.108,6.597,2.333,8.341,6.809l0.007-0.002c0.34,0.876,0.888,1.688,1.646,2.349
			c2.496,2.179,6.287,1.922,8.466-0.575c3.16-3.62,6.77-4.891,10.16-3.575c3.072,1.19,6.123,4.713,6.011,9.897
			C278.331,36.206,268.38,45.293,251.732,51.551z"/>
		<path d="M356.959,121.716c1.792-15.29-5.664-29.902-18.554-36.363c-10.155-5.091-21.586-4.149-31.77,2.319
			c-5.449-10.764-14.795-17.41-26.127-18.223c-12.905-0.946-25.395,6.027-32.355,17.625L235.315,73.59
			c0.513-8.501-1.441-14.802-3.142-18.55c-5.516-12.156-17.626-19.667-30.101-18.691c-9.558,0.747-17.442,6.244-22.178,15.099
			c-8.66-5.08-18.253-5.654-26.795-1.307c-11.161,5.686-17.56,18.405-15.921,31.651c0.351,2.833,1.24,6.778,3.377,11.259
			l-21.111,22.174c-5.338-3.223-11.643-4.488-17.759-3.228c-7.509,1.546-13.31,6.487-16.446,13.709
			c-7.365-2.786-14.951-2.071-21.295,2.233c-8.675,5.887-12.665,17.095-9.929,27.891c1.006,3.969,3.688,10.53,10.776,16.797
			c0,0-14.304,15.029-14.347,15.079c-4.489,5.183-6.961,11.817-6.961,18.684v165.765c0,15.744,12.809,28.553,28.552,28.553h125.169
			h125.171c15.743,0,28.552-12.809,28.552-28.553V206.39c0-6.865-2.473-13.501-6.962-18.687
			c-0.045-0.053-21.868-22.965-21.868-22.965C350.122,149.744,355.894,130.811,356.959,121.716z M158.546,60.834
			c6.237-3.178,13.491-1.562,19.902,4.434l0.01-0.011c0.686,0.644,1.531,1.138,2.5,1.405c3.2,0.889,6.5-0.988,7.383-4.182
			c2.342-8.459,7.687-13.623,14.665-14.169c7.48-0.583,14.803,4.112,18.239,11.687c6.653,14.665-1.868,35.925-22.811,57.272
			c-29.005-7.28-47.368-20.969-49.346-36.951C148.066,72.066,151.868,64.236,158.546,60.834z M70.683,137.87
			c4.219-2.863,9.458-2.329,14.751,1.503c2.685,1.942,6.435,1.344,8.379-1.342c0.59-0.816,0.942-1.728,1.075-2.659l0.013,0.002
			c0.942-6.467,4.212-10.594,9.206-11.622c5.337-1.105,11.075,1.655,14.272,6.857c6.371,10.366,1.935,27.247-11.833,45.545
			c-22.715-2.89-37.908-11.478-40.897-23.273C64.149,146.963,66.171,140.931,70.683,137.87z M55.484,206.39
			c0-1.784,0.303-3.537,0.854-5.203l89.087,84.389l-89.205,91.46c-0.478-1.544-0.736-3.183-0.736-4.881V206.39z M197.205,388.707
			H72.036c-3.01,0-5.827-0.82-8.262-2.231l90.364-92.647l38.94,36.887c0.021,0.02,1.814,1.644,4.123,1.644c0,0,0.001,0,0.002,0
			h0.002c1.481,0,2.965-0.545,4.125-1.644l38.943-36.889l90.363,92.649c-2.435,1.411-5.251,2.231-8.262,2.231H197.205z
			 M338.928,206.39v165.765c0,1.698-0.259,3.337-0.736,4.881l-89.205-91.462l89.087-84.387
			C338.625,202.854,338.928,204.606,338.928,206.39z M330.933,191.421L197.204,318.094L63.474,191.416l11.395-11.969
			c7.947,4.139,18.832,7.529,33.757,9.022c0.203,0.021,0.405,0.03,0.604,0.03v-0.005c1.766-0.001,3.514-0.776,4.698-2.266
			c26.839-33.754,19.203-54.536,14.675-61.904c-0.164-0.266-0.345-0.515-0.516-0.773l19.266-20.235
			c8.491,9.793,23.855,20.074,51.602,26.42c0.45,0.104,0.9,0.152,1.344,0.152l0.002-0.014l0.003,0.009
			c1.513,0,3.026-0.568,4.193-1.709c15.794-15.435,23.991-28.999,27.87-40.276l10.993,11.545
			c-3.119,14.863-0.833,41.865,35.839,77.243c1.165,1.123,2.666,1.682,4.165,1.682l0.007-0.017l0.002,0.021
			c0.455,0,0.918-0.052,1.38-0.161c9.922-2.336,18.481-5.09,25.88-8.111L330.933,191.421z M285.19,165.749
			c-25.737-25.718-36.289-51.596-28.246-69.631c4.22-9.464,13.351-15.364,22.707-14.7c8.804,0.631,15.564,7.029,18.55,17.554
			l0.04-0.012c0.255,0.907,0.7,1.772,1.392,2.503c2.277,2.405,6.075,2.509,8.483,0.23c7.943-7.522,17.023-9.567,24.913-5.613
			c8.392,4.206,13.219,13.946,12.013,24.238C342.742,139.932,320.452,156.789,285.19,165.749z"/>
	</g>
</g>
</svg>